<?xml version="1.0"?>
<svg xmlns="http://www.w3.org/2000/svg" viewBox="0 0 64 64" width="512" height="512"><g id="Cctv"><path d="M19,32.575a4.835,4.835,0,0,0-3.56,1.571A1,1,0,0,0,16.9,35.51a2.884,2.884,0,0,1,4.2,0,1,1,0,0,0,1.462-1.364A4.835,4.835,0,0,0,19,32.575Z"/><path d="M19,24a12.515,12.515,0,0,0-9.215,4.078,1,1,0,0,0,1.462,1.364,10.453,10.453,0,0,1,15.506,0,1,1,0,1,0,1.462-1.364A12.515,12.515,0,0,0,19,24Z"/><path d="M19,28.287a8.672,8.672,0,0,0-6.387,2.825,1,1,0,0,0,1.462,1.364,6.635,6.635,0,0,1,9.85,0,1,1,0,1,0,1.462-1.364A8.674,8.674,0,0,0,19,28.287Z"/><path d="M61,2H39a1,1,0,0,0-1,1V7a1,1,0,0,0,1,1h1v4a10,10,0,0,0,20,0V8h1a1,1,0,0,0,1-1V3A1,1,0,0,0,61,2ZM46,18.918V16a4,4,0,1,1,8,0v2.918a7.935,7.935,0,0,1-8,0ZM58,12a7.957,7.957,0,0,1-2,5.274V16a6,6,0,0,0-12,0v1.274A7.957,7.957,0,0,1,42,12V8H58Zm2-6H40V4H60Z"/><path d="M50,13a3,3,0,1,0,3,3A3,3,0,0,0,50,13Zm0,4a1,1,0,1,1,1-1A1,1,0,0,1,50,17Z"/><path d="M53.561,25.853A1,1,0,1,0,52.1,24.488a2.882,2.882,0,0,1-4.195,0,1,1,0,0,0-1.463,1.365,4.82,4.82,0,0,0,7.121,0Z"/><path d="M57.753,30.556a10.45,10.45,0,0,1-15.505,0,1,1,0,0,0-1.463,1.364A12.516,12.516,0,0,0,50,36h0a12.52,12.52,0,0,0,9.216-4.079,1,1,0,0,0-1.463-1.364Z"/><path d="M43.661,27.474a1,1,0,0,0-.049,1.413,8.637,8.637,0,0,0,12.776,0,1,1,0,0,0-1.463-1.365,6.635,6.635,0,0,1-9.85,0A1,1,0,0,0,43.661,27.474Z"/><circle cx="19" cy="39" r="2"/><path d="M31,2H7A5.006,5.006,0,0,0,2,7V57a5.006,5.006,0,0,0,5,5H31a5.006,5.006,0,0,0,5-5V7A5.006,5.006,0,0,0,31,2Zm0,58H7a3,3,0,0,1-3-3v-.026A4.948,4.948,0,0,0,7,58H31a4.948,4.948,0,0,0,3-1.026V57A3,3,0,0,1,31,60Zm0-4H7a3,3,0,0,1-3-3V7A3,3,0,0,1,7,4H31a3,3,0,0,1,3,3V53A3,3,0,0,1,31,56Z"/><rect x="16" y="6" width="2" height="2"/><rect x="20" y="6" width="2" height="2"/><path d="M30,5H27a3,3,0,0,0-3,3,1,1,0,0,1-1,1H15a1,1,0,0,1-1-1,3,3,0,0,0-3-3H8A3,3,0,0,0,5,8V49a3,3,0,0,0,3,3H30a3,3,0,0,0,3-3V8A3,3,0,0,0,30,5Zm1,44a1,1,0,0,1-1,1H8a1,1,0,0,1-1-1V8A1,1,0,0,1,8,7h3a1,1,0,0,1,1,1,3,3,0,0,0,3,3h8a3,3,0,0,0,3-3,1,1,0,0,1,1-1h3a1,1,0,0,1,1,1Z"/><rect x="16" y="53" width="6" height="2"/></g></svg>
