<svg height="496pt" viewBox="-8 0 496 496" width="496pt" xmlns="http://www.w3.org/2000/svg"><path d="m168.097656 224c-10.132812.042969-19.148437 6.445312-22.527344 16h-98.941406c-3.898437-11.019531-15.167968-17.632812-26.6875-15.65625-11.519531 1.976562-19.941406 11.96875-19.941406 23.65625s8.421875 21.679688 19.941406 23.65625c11.519532 1.976562 22.789063-4.636719 26.6875-15.65625h98.941406c4.089844 11.476562 16.140626 18.058594 28.003907 15.296875 11.867187-2.761719 19.769531-13.988281 18.367187-26.09375-1.398437-12.101563-11.660156-21.226563-23.84375-21.203125zm-144 32c-4.417968 0-8-3.582031-8-8s3.582032-8 8-8c4.421875 0 8 3.582031 8 8s-3.578125 8-8 8zm144 0c-4.417968 0-8-3.582031-8-8s3.582032-8 8-8c4.421875 0 8 3.582031 8 8s-3.578125 8-8 8zm0 0"/><path d="m168.097656 304c-10.132812.042969-19.148437 6.445312-22.527344 16h-97.472656c-2.515625 0-4.886718 1.1875-6.398437 3.199219l-10.488281 14c-2.292969-.761719-4.695313-1.167969-7.113282-1.199219-11.03125-.007812-20.65625 7.492188-23.34375 18.195312-2.691406 10.699219 2.246094 21.855469 11.972656 27.066407 9.726563 5.210937 21.75 3.132812 29.167969-5.035157 7.414063-8.167968 8.324219-20.335937 2.203125-29.515624l8-10.710938h93.472656c4.089844 11.476562 16.140626 18.058594 28.003907 15.296875 11.867187-2.761719 19.769531-13.988281 18.367187-26.09375-1.398437-12.101563-11.660156-21.226563-23.84375-21.203125zm-144 64c-4.417968 0-8-3.582031-8-8s3.582032-8 8-8c4.421875 0 8 3.582031 8 8s-3.578125 8-8 8zm144-32c-4.417968 0-8-3.582031-8-8s3.582032-8 8-8c4.421875 0 8 3.582031 8 8s-3.578125 8-8 8zm0 0"/><path d="m168.097656 384c-13.253906 0-24 10.746094-24 24 .015625 3.5625.835938 7.078125 2.402344 10.28125l-45.710938 45.71875h-54.160156c-3.898437-11.019531-15.167968-17.632812-26.6875-15.65625-11.519531 1.976562-19.941406 11.96875-19.941406 23.65625s8.421875 21.679688 19.941406 23.65625c11.519532 1.976562 22.789063-4.636719 26.6875-15.65625h57.46875c2.125 0 4.15625-.84375 5.65625-2.34375l48.066406-48.054688c3.199219 1.5625 6.714844 2.382813 10.277344 2.398438 13.257813 0 24-10.746094 24-24s-10.742187-24-24-24zm-144 96c-4.417968 0-8-3.582031-8-8s3.582032-8 8-8c4.421875 0 8 3.582031 8 8s-3.578125 8-8 8zm144-64c-2.09375.007812-4.105468-.8125-5.597656-2.28125v-.117188l-.097656-.066406c-2.632813-2.75-2.964844-6.972656-.792969-10.101562 2.175781-3.125 6.25-4.289063 9.746094-2.777344 3.496093 1.511719 5.441406 5.28125 4.648437 9.003906-.789062 3.726563-4.097656 6.378906-7.90625 6.339844zm0 0"/><path d="m168.097656 144c-10.132812.042969-19.148437 6.445312-22.527344 16h-93.472656l-8-10.710938c6.09375-9.164062 5.175782-21.292968-2.226562-29.433593s-19.390625-10.207031-29.089844-5.011719-14.621094 16.320312-11.949219 26.992188c2.675781 10.671874 12.265625 18.15625 23.265625 18.164062 2.417969-.03125 4.820313-.4375 7.113282-1.199219l10.488281 14c1.511719 2.011719 3.882812 3.199219 6.398437 3.199219h97.472656c4.089844 11.476562 16.140626 18.058594 28.003907 15.296875 11.867187-2.761719 19.769531-13.988281 18.367187-26.09375-1.398437-12.101563-11.660156-21.226563-23.84375-21.203125zm-152-8c0-4.417969 3.582032-8 8-8 4.421875 0 8 3.582031 8 8s-3.578125 8-8 8c-4.417968 0-8-3.582031-8-8zm152 40c-4.417968 0-8-3.582031-8-8s3.582032-8 8-8c4.421875 0 8 3.582031 8 8s-3.578125 8-8 8zm0 0"/><path d="m168.097656 64c-3.5625.015625-7.078125.835938-10.277344 2.398438l-48.066406-48.054688c-1.5-1.5-3.53125-2.34375-5.65625-2.34375h-57.46875c-3.898437-11.019531-15.167968-17.632812-26.6875-15.65625-11.519531 1.976562-19.941406 11.96875-19.941406 23.65625s8.421875 21.679688 19.941406 23.65625c11.519532 1.976562 22.789063-4.636719 26.6875-15.65625h54.160156l45.710938 45.71875c-1.566406 3.203125-2.386719 6.71875-2.402344 10.28125 0 13.253906 10.746094 24 24 24 13.257813 0 24-10.746094 24-24s-10.742187-24-24-24zm-144-32c-4.417968 0-8-3.582031-8-8s3.582032-8 8-8c4.421875 0 8 3.582031 8 8s-3.578125 8-8 8zm144 64c-3.21875.003906-6.128906-1.929688-7.378906-4.898438s-.59375-6.398437 1.660156-8.703124h.121094l.0625-.09375c2.582031-2.546876 6.550781-3.039063 9.671875-1.199219 3.125 1.835937 4.625 5.542969 3.65625 9.035156-.972656 3.492187-4.167969 5.894531-7.792969 5.859375zm0 0"/><path d="m264.097656 320c.050782-12.21875-9.082031-22.523438-21.21875-23.9375-12.136718-1.414062-23.398437 6.511719-26.160156 18.414062-2.757812 11.902344 3.863281 23.980469 15.378906 28.050782v98.945312c-11.019531 3.894532-17.628906 15.164063-15.652344 26.683594 1.976563 11.523438 11.964844 19.941406 23.652344 19.941406 11.691406 0 21.679688-8.417968 23.65625-19.941406 1.976563-11.519531-4.632812-22.789062-15.65625-26.683594v-98.945312c9.554688-3.378906 15.960938-12.394532 16-22.527344zm-24-8c4.421875 0 8 3.582031 8 8s-3.578125 8-8 8c-4.417968 0-8-3.582031-8-8s3.582032-8 8-8zm0 160c-4.417968 0-8-3.582031-8-8s3.582032-8 8-8c4.421875 0 8 3.582031 8 8s-3.578125 8-8 8zm0 0"/><path d="m216.097656 176c-.046875 12.21875 9.085938 22.523438 21.222656 23.9375 12.136719 1.414062 23.398438-6.511719 26.15625-18.414062 2.761719-11.902344-3.859374-23.980469-15.378906-28.050782v-98.945312c11.023438-3.894532 17.632813-15.164063 15.65625-26.683594-1.976562-11.523438-11.964844-19.941406-23.65625-19.941406-11.6875 0-21.675781 8.417968-23.652344 19.941406-1.976562 11.519531 4.632813 22.789062 15.652344 26.683594v98.945312c-9.554687 3.378906-15.957031 12.394532-16 22.527344zm24 8c-4.417968 0-8-3.582031-8-8s3.582032-8 8-8c4.421875 0 8 3.582031 8 8s-3.578125 8-8 8zm0-160c4.421875 0 8 3.582031 8 8s-3.578125 8-8 8c-4.417968 0-8-3.582031-8-8s3.582032-8 8-8zm0 0"/><path d="m456.097656 224c-10.132812.042969-19.148437 6.445312-22.527344 16h-98.941406c-3.898437-11.019531-15.167968-17.632812-26.6875-15.65625-11.519531 1.976562-19.941406 11.96875-19.941406 23.65625s8.421875 21.679688 19.941406 23.65625c11.519532 1.976562 22.789063-4.636719 26.6875-15.65625h98.941406c4.089844 11.476562 16.140626 18.058594 28.003907 15.296875 11.867187-2.761719 19.769531-13.988281 18.367187-26.09375-1.398437-12.101563-11.660156-21.226563-23.84375-21.203125zm-144 32c-4.417968 0-8-3.582031-8-8s3.582032-8 8-8c4.421875 0 8 3.582031 8 8s-3.578125 8-8 8zm144 0c-4.417968 0-8-3.582031-8-8s3.582032-8 8-8c4.421875 0 8 3.582031 8 8s-3.578125 8-8 8zm0 0"/><path d="m312.097656 112c13.257813 0 24-10.746094 24-24-.011718-3.5625-.832031-7.078125-2.398437-10.28125l45.710937-45.71875h54.160156c3.898438 11.019531 15.167969 17.632812 26.6875 15.65625 11.519532-1.976562 19.941407-11.96875 19.941407-23.65625s-8.421875-21.679688-19.941407-23.65625c-11.519531-1.976562-22.789062 4.636719-26.6875 15.65625h-57.472656c-2.121094 0-4.15625.84375-5.652344 2.34375l-48.066406 48.054688c-3.199218-1.5625-6.714844-2.382813-10.28125-2.398438-13.253906 0-24 10.746094-24 24s10.746094 24 24 24zm144-96c4.421875 0 8 3.582031 8 8s-3.578125 8-8 8c-4.417968 0-8-3.582031-8-8s3.582032-8 8-8zm-144 64c2.097656-.007812 4.109375.8125 5.601563 2.28125l.0625.09375.097656.066406c2.644531 2.734375 2.996094 6.949219.84375 10.085938-2.152344 3.136718-6.214844 4.324218-9.714844 2.839844-3.503906-1.484376-5.476562-5.226563-4.722656-8.957032.757813-3.726562 4.03125-6.40625 7.832031-6.410156zm0 0"/><path d="m456.097656 112c-8.839844.007812-16.960937 4.878906-21.132812 12.671875-4.171875 7.796875-3.71875 17.253906 1.175781 24.617187l-8.042969 10.710938h-93.46875c-3.898437-11.019531-15.167968-17.632812-26.6875-15.65625-11.519531 1.976562-19.941406 11.96875-19.941406 23.65625s8.421875 21.679688 19.941406 23.65625c11.519532 1.976562 22.789063-4.636719 26.6875-15.65625h97.46875c2.519532 0 4.890625-1.1875 6.402344-3.199219l10.488281-14c2.292969.761719 4.691407 1.167969 7.109375 1.199219 13.257813 0 24-10.746094 24-24s-10.742187-24-24-24zm-144 64c-4.417968 0-8-3.582031-8-8s3.582032-8 8-8c4.421875 0 8 3.582031 8 8s-3.578125 8-8 8zm144-32c-4.417968 0-8-3.582031-8-8s3.582032-8 8-8c4.421875 0 8 3.582031 8 8s-3.578125 8-8 8zm0 0"/><path d="m456.097656 448c-10.132812.042969-19.148437 6.445312-22.527344 16h-54.160156l-45.710937-45.71875c1.566406-3.203125 2.386719-6.71875 2.398437-10.28125 0-13.253906-10.742187-24-24-24-13.253906 0-24 10.746094-24 24s10.746094 24 24 24c3.566406-.015625 7.082032-.835938 10.28125-2.398438l48.066406 48.0625c1.5 1.496094 3.535157 2.335938 5.652344 2.335938h57.472656c4.089844 11.476562 16.140626 18.058594 28.003907 15.296875 11.867187-2.761719 19.769531-13.988281 18.367187-26.09375-1.398437-12.101563-11.660156-21.226563-23.84375-21.203125zm-152-40c.003906-3.609375 2.425782-6.769531 5.90625-7.714844 3.484375-.945312 7.167969.558594 8.996094 3.671875 1.824219 3.113281 1.34375 7.0625-1.179688 9.644531h-.121093l-.0625.09375c-2.304688 2.207032-5.699219 2.835938-8.640625 1.601563-2.941406-1.238281-4.867188-4.105469-4.898438-7.296875zm152 72c-4.417968 0-8-3.582031-8-8s3.582032-8 8-8c4.421875 0 8 3.582031 8 8s-3.578125 8-8 8zm0 0"/><path d="m456.097656 336c-2.417968.03125-4.816406.4375-7.109375 1.199219l-10.488281-14c-1.511719-2.011719-3.882812-3.199219-6.402344-3.199219h-97.46875c-3.898437-11.019531-15.167968-17.632812-26.6875-15.65625-11.519531 1.976562-19.941406 11.96875-19.941406 23.65625s8.421875 21.679688 19.941406 23.65625c11.519532 1.976562 22.789063-4.636719 26.6875-15.65625h93.46875l8.042969 10.710938c-6.09375 9.167968-5.171875 21.300781 2.234375 29.441406s19.402344 10.199218 29.097656 4.996094c9.699219-5.207032 14.613282-16.339844 11.925782-27.011719-2.691407-10.671875-12.292969-18.148438-23.300782-18.136719zm-144 0c-4.417968 0-8-3.582031-8-8s3.582032-8 8-8c4.421875 0 8 3.582031 8 8s-3.578125 8-8 8zm144 32c-4.417968 0-8-3.582031-8-8s3.582032-8 8-8c4.421875 0 8 3.582031 8 8s-3.578125 8-8 8zm0 0"/><path d="m240.097656 216c-17.671875 0-32 14.328125-32 32s14.328125 32 32 32c17.675782 0 32-14.328125 32-32s-14.324218-32-32-32zm0 48c-8.835937 0-16-7.164062-16-16s7.164063-16 16-16c8.839844 0 16 7.164062 16 16s-7.160156 16-16 16zm0 0"/></svg>