<?xml version="1.0" encoding="iso-8859-1"?>
<!-- Generator: Adobe Illustrator 19.0.0, SVG Export Plug-In . SVG Version: 6.00 Build 0)  -->
<svg version="1.1" id="Capa_1" xmlns="http://www.w3.org/2000/svg" xmlns:xlink="http://www.w3.org/1999/xlink" x="0px" y="0px"
	 viewBox="0 0 480 480" style="enable-background:new 0 0 480 480;" xml:space="preserve">
<g>
	<g>
		<path d="M0,32v416h480V32H0z M464,432H16v-80h448V432z M464,336H16V48h448V336z"/>
	</g>
</g>
<g>
	<g>
		<path d="M424,368c-13.255,0-24,10.745-24,24s10.745,24,24,24s24-10.745,24-24S437.255,368,424,368z M424,400c-4.418,0-8-3.582-8-8
			s3.582-8,8-8s8,3.582,8,8S428.418,400,424,400z"/>
	</g>
</g>
<g>
	<g>
		<path d="M360,368c-13.255,0-24,10.745-24,24s10.745,24,24,24s24-10.745,24-24S373.255,368,360,368z M360,400c-4.418,0-8-3.582-8-8
			s3.582-8,8-8s8,3.582,8,8S364.418,400,360,400z"/>
	</g>
</g>
<g>
	<g>
		<path d="M296,368c-13.255,0-24,10.745-24,24s10.745,24,24,24s24-10.745,24-24S309.255,368,296,368z M296,400c-4.418,0-8-3.582-8-8
			s3.582-8,8-8s8,3.582,8,8S300.418,400,296,400z"/>
	</g>
</g>
<g>
	<g>
		<path d="M232,368c-13.255,0-24,10.745-24,24s10.745,24,24,24s24-10.745,24-24S245.255,368,232,368z M232,400c-4.418,0-8-3.582-8-8
			s3.582-8,8-8s8,3.582,8,8S236.418,400,232,400z"/>
	</g>
</g>
<g>
	<g>
		<path d="M168,368c-13.255,0-24,10.745-24,24s10.745,24,24,24s24-10.745,24-24S181.255,368,168,368z M168,400c-4.418,0-8-3.582-8-8
			s3.582-8,8-8s8,3.582,8,8S172.418,400,168,400z"/>
	</g>
</g>
<g>
	<g>
		<path d="M224,240V64h-16v176h-32v48h32v32h16v-32h32v-48H224z M240,272h-48v-16h48V272z"/>
	</g>
</g>
<g>
	<g>
		<rect x="32" y="64" width="16" height="32"/>
	</g>
</g>
<g>
	<g>
		<rect x="64" y="64" width="16" height="32"/>
	</g>
</g>
<g>
	<g>
		<rect x="96" y="64" width="16" height="32"/>
	</g>
</g>
<g>
	<g>
		<rect x="128" y="64" width="16" height="32"/>
	</g>
</g>
<g>
	<g>
		<rect x="160" y="64" width="16" height="32"/>
	</g>
</g>
<g>
	<g>
		<path d="M416,256V64h-16v192h-32v48h32v16h16v-16h32v-48H416z M432,288h-48v-16h48V288z"/>
	</g>
</g>
<g>
	<g>
		<path d="M320,160V64h-16v96h-32v48h32v112h16V208h32v-48H320z M336,192h-48v-16h48V192z"/>
	</g>
</g>
<g>
	<g>
		<path d="M32,368v48h64v-48H32z M80,400H48v-16h32V400z"/>
	</g>
</g>
<g>
	<g>
		<path d="M32,112v64h144v-64H32z M160,160H48v-32h112V160z"/>
	</g>
</g>
<g>
	<g>
		<polygon points="80,208 80,192 64,192 64,208 48,208 48,224 64,224 64,320 80,320 80,224 96,224 96,208 		"/>
	</g>
</g>
<g>
	<g>
		<polygon points="144,208 144,192 128,192 128,208 112,208 112,224 128,224 128,320 144,320 144,224 160,224 160,208 		"/>
	</g>
</g>
<g>
</g>
<g>
</g>
<g>
</g>
<g>
</g>
<g>
</g>
<g>
</g>
<g>
</g>
<g>
</g>
<g>
</g>
<g>
</g>
<g>
</g>
<g>
</g>
<g>
</g>
<g>
</g>
<g>
</g>
</svg>
