<svg height="511pt" viewBox="1 -43 511.999 511" width="511pt" xmlns="http://www.w3.org/2000/svg"><path d="m434.820312 157.339844h-294.253906c-4.15625 0-7.527344 3.367187-7.527344 7.527344 0 4.15625 3.371094 7.523437 7.527344 7.523437h294.253906c34.257813 0 62.125 27.871094 62.125 62.128906 0 34.253907-27.871093 62.125-62.125 62.125h-38.78125c-4.15625 0-7.523437 3.367188-7.523437 7.523438 0 4.160156 3.367187 7.527343 7.523437 7.527343h38.78125c42.558594 0 77.179688-34.621093 77.179688-77.175781 0-42.558593-34.621094-77.179687-77.179688-77.179687zm0 0"/><path d="m129.273438 249.328125c8.164062 0 14.808593-6.644531 14.808593-14.808594 0-8.167969-6.644531-14.8125-14.808593-14.8125-8.167969 0-14.8125 6.644531-14.8125 14.8125 0 8.164063 6.644531 14.808594 14.8125 14.808594zm0 0"/><path d="m237.054688 234.519531c0-15.1875-12.355469-27.542969-27.539063-27.542969-15.1875 0-27.542969 12.355469-27.542969 27.542969 0 15.183594 12.355469 27.539063 27.542969 27.539063 15.183594 0 27.539063-12.355469 27.539063-27.539063zm-40.027344 0c0-6.886719 5.601562-12.488281 12.484375-12.488281 6.886719 0 12.488281 5.601562 12.488281 12.488281 0 6.882813-5.601562 12.484375-12.488281 12.484375-6.882813 0-12.484375-5.601562-12.484375-12.484375zm0 0"/><path d="m317.296875 234.519531c0-15.1875-12.355469-27.542969-27.539063-27.542969-15.1875 0-27.542968 12.355469-27.542968 27.542969 0 15.183594 12.355468 27.539063 27.542968 27.539063 15.183594 0 27.539063-12.355469 27.539063-27.539063zm-40.027344 0c0-6.886719 5.601563-12.488281 12.484375-12.488281 6.886719 0 12.488282 5.601562 12.488282 12.488281 0 6.882813-5.601563 12.484375-12.488282 12.484375-6.882812 0-12.484375-5.601562-12.484375-12.484375zm0 0"/><path d="m397.539062 234.519531c0-15.1875-12.355468-27.542969-27.539062-27.542969-15.1875 0-27.542969 12.355469-27.542969 27.542969 0 15.183594 12.355469 27.539063 27.542969 27.539063 15.183594 0 27.539062-12.355469 27.539062-27.539063zm-40.027343 0c0-6.886719 5.601562-12.488281 12.484375-12.488281 6.886718 0 12.488281 5.601562 12.488281 12.488281 0 6.882813-5.601563 12.484375-12.488281 12.484375-6.882813 0-12.484375-5.601562-12.484375-12.484375zm0 0"/><path d="m390.167969 360.089844h-70.539063v-48.394532h46.308594c4.15625 0 7.527344-3.367187 7.527344-7.527343 0-4.15625-3.371094-7.523438-7.527344-7.523438h-288.757812c-34.257813 0-62.128907-27.871093-62.128907-62.125 0-34.257812 27.871094-62.128906 62.128907-62.128906h33.28125c4.15625 0 7.523437-3.367187 7.523437-7.523437 0-4.160157-3.367187-7.527344-7.523437-7.527344h-33.28125c-42.558594 0-77.179688 34.621094-77.179688 77.179687 0 42.554688 34.621094 77.175781 77.179688 77.175781h115.191406v48.394532h-70.539063c-18.222656 0-33.042969 14.820312-33.042969 33.042968 0 18.222657 14.820313 33.046876 33.042969 33.046876h63.011719c4.15625 0 7.527344-3.367188 7.527344-7.527344 0-4.15625-3.371094-7.523438-7.527344-7.523438h-63.011719c-9.921875 0-17.992187-8.074218-17.992187-17.996094 0-9.921874 8.070312-17.992187 17.992187-17.992187h268.335938c9.921875 0 17.992187 8.070313 17.992187 17.992187 0 9.921876-8.070312 17.996094-17.992187 17.996094h-175.21875c-4.15625 0-7.527344 3.367188-7.527344 7.523438 0 4.160156 3.371094 7.527344 7.527344 7.527344h175.21875c18.21875 0 33.042969-14.824219 33.042969-33.046876 0-18.222656-14.824219-33.042968-33.042969-33.042968zm-182.746094 0v-48.394532h97.15625v48.394532zm0 0"/><path d="m181.292969 38.316406c22.5-14.894531 48.332031-22.765625 74.707031-22.765625 26.371094 0 52.203125 7.871094 74.707031 22.765625 1.277344.84375 2.71875 1.25 4.144531 1.25 2.441407 0 4.835938-1.1875 6.285157-3.375 2.292969-3.464844 1.34375-8.132812-2.121094-10.429687-24.972656-16.527344-53.679687-25.261719-83.015625-25.261719s-58.042969 8.734375-83.015625 25.261719c-3.464844 2.292969-4.417969 6.964843-2.121094 10.429687 2.292969 3.46875 6.960938 4.417969 10.429688 2.125zm0 0"/><path d="m306.863281 77.480469c2.472657 0 4.894531-1.214844 6.335938-3.449219 2.25-3.492188 1.242187-8.152344-2.25-10.402344-16.585938-10.6875-35.585938-16.339844-54.949219-16.339844s-38.363281 5.652344-54.949219 16.339844c-3.496093 2.25-4.503906 6.910156-2.25 10.402344 2.25 3.496094 6.910157 4.5 10.402344 2.25 14.148437-9.117188 30.332031-13.9375 46.796875-13.9375s32.644531 4.820312 46.796875 13.9375c1.261719.8125 2.671875 1.199219 4.066406 1.199219zm0 0"/><path d="m256 94.394531c-9.179688 0-18.195312 3.140625-26.066406 9.078125-3.320313 2.503906-3.980469 7.222656-1.480469 10.539063 2.503906 3.320312 7.226563 3.980469 10.542969 1.480469 5.316406-4.011719 11.035156-6.042969 17.003906-6.042969 5.964844 0 11.6875 2.03125 17.003906 6.042969 1.355469 1.023437 2.949219 1.515624 4.527344 1.515624 2.28125 0 4.535156-1.03125 6.011719-2.992187 2.503906-3.320313 1.84375-8.039063-1.476563-10.542969-7.875-5.9375-16.886718-9.078125-26.066406-9.078125zm0 0"/></svg>