<?xml version="1.0"?>
<svg xmlns="http://www.w3.org/2000/svg" viewBox="0 0 64 64" width="512" height="512"><g id="Setting"><path d="M48,17A14.971,14.971,0,0,0,36.029,41H31a1,1,0,0,0,0,2h6.837a14.937,14.937,0,0,0,1.2,1H37a1,1,0,0,0,0,2h5.66A14.993,14.993,0,1,0,48,17Zm0,28a12.909,12.909,0,0,1-4.411-.787A.971.971,0,0,0,43.017,44,12.994,12.994,0,1,1,48,45Z"/><path d="M27.247,41.892A14.9,14.9,0,0,0,28.666,24H31a1,1,0,0,0,0-2H27.149a15.08,15.08,0,0,0-2.187-2H29a1,1,0,0,0,0-2H22a.984.984,0,0,0-.409.092,14.976,14.976,0,0,0-16.838,23.8,1,1,0,0,0,.155.171,14.929,14.929,0,0,0,22.184,0A.967.967,0,0,0,27.247,41.892ZM16,19A12.979,12.979,0,0,1,26.948,38.983a11.562,11.562,0,0,0-6.22-7.321,5.74,5.74,0,0,0,1.522-4.037,6.25,6.25,0,0,0-12.5,0,5.74,5.74,0,0,0,1.522,4.037,11.562,11.562,0,0,0-6.22,7.321A12.979,12.979,0,0,1,16,19Zm0,26a12.955,12.955,0,0,1-9.37-4.012,9.517,9.517,0,0,1,6.975-8.015,1,1,0,0,0,.232-1.86,3.672,3.672,0,0,1-2.087-3.488,4.25,4.25,0,0,1,8.5,0,3.672,3.672,0,0,1-2.087,3.488,1,1,0,0,0,.232,1.86,9.517,9.517,0,0,1,6.975,8.015A12.955,12.955,0,0,1,16,45Z"/><path d="M59,29H56.478a9.266,9.266,0,0,0-.362-.873L57.9,26.343a1,1,0,0,0,0-1.414L55.071,22.1a1,1,0,0,0-1.414,0l-1.784,1.783A9.266,9.266,0,0,0,51,23.522V21a1,1,0,0,0-1-1H46a1,1,0,0,0-1,1v2.522a9.266,9.266,0,0,0-.873.362L42.343,22.1a1,1,0,0,0-1.414,0L38.1,24.929a1,1,0,0,0,0,1.414l1.783,1.784a9.266,9.266,0,0,0-.362.873H37a1,1,0,0,0-1,1v4a1,1,0,0,0,1,1h2.522a9.266,9.266,0,0,0,.362.873L38.1,37.657a1,1,0,0,0,0,1.414L40.929,41.9a1,1,0,0,0,1.414,0l1.784-1.783a9.266,9.266,0,0,0,.873.362V43a1,1,0,0,0,1,1h4a1,1,0,0,0,1-1V40.478a9.266,9.266,0,0,0,.873-.362L53.657,41.9a1,1,0,0,0,1.414,0L57.9,39.071a1,1,0,0,0,0-1.414l-1.783-1.784A9.266,9.266,0,0,0,56.478,35H59a1,1,0,0,0,1-1V30A1,1,0,0,0,59,29Zm-1,4H55.738a1,1,0,0,0-.968.75,7,7,0,0,1-.745,1.8,1,1,0,0,0,.154,1.216l1.6,1.6-1.414,1.414-1.6-1.6a1,1,0,0,0-1.216-.154,7,7,0,0,1-1.8.745,1,1,0,0,0-.75.968V42H47V39.738a1,1,0,0,0-.75-.968,7,7,0,0,1-1.8-.745,1,1,0,0,0-1.216.154l-1.6,1.6-1.414-1.414,1.6-1.6a1,1,0,0,0,.154-1.216,7,7,0,0,1-.745-1.8,1,1,0,0,0-.968-.75H38V31h2.262a1,1,0,0,0,.968-.75,7,7,0,0,1,.745-1.8,1,1,0,0,0-.154-1.216l-1.6-1.6,1.414-1.414,1.6,1.6a1,1,0,0,0,1.216.154,7,7,0,0,1,1.8-.745,1,1,0,0,0,.75-.968V22h2v2.262a1,1,0,0,0,.75.968,7,7,0,0,1,1.8.745,1,1,0,0,0,1.216-.154l1.6-1.6,1.414,1.414-1.6,1.6a1,1,0,0,0-.154,1.216,7,7,0,0,1,.745,1.8,1,1,0,0,0,.968.75H58Z"/><path d="M48,29a3,3,0,1,0,3,3A3,3,0,0,0,48,29Zm0,4a1,1,0,1,1,1-1A1,1,0,0,1,48,33Z"/><path d="M32,20h1a1,1,0,0,0,0-2H32a1,1,0,0,0,0,2Z"/><path d="M34,44H33a1,1,0,0,0,0,2h1a1,1,0,0,0,0-2Z"/></g></svg>
