<svg height="492pt" viewBox="0 -76 492.00051 492" width="492pt" xmlns="http://www.w3.org/2000/svg"><path d="m471.5625 299.59375c-8.976562.011719-16.894531 5.867188-19.539062 14.441406h-28.554688c-4.800781-.023437-8.949219-3.363281-9.988281-8.050781-2.265625-10.1875-11.277344-17.449219-21.714844-17.5h-21.878906v-30.539063h2.183593c6.324219-.011718 12.03125 3.792969 14.457032 9.636719 4.277344 10.320313 14.359375 17.042969 25.535156 17.023438h5.523438c2.96875 9.671875 12.566406 15.714843 22.574218 14.214843 10.003906-1.503906 17.40625-10.097656 17.40625-20.214843 0-10.117188-7.402344-18.714844-17.40625-20.214844-10.007812-1.503906-19.605468 4.542969-22.574218 14.214844h-5.523438c-6.328125.011719-12.035156-3.796875-14.457031-9.640625-4.28125-10.320313-14.363281-17.039063-25.535157-17.019532h-2.183593v-7.566406l26.222656.125c10.664063.007813 20.472656-5.84375 25.535156-15.230468 2.96875-5.503907 8.722657-8.9375 14.976563-8.933594h10.566406c3.101562 9.636718 12.789062 15.550781 22.773438 13.910156 9.988281-1.640625 17.273437-10.339844 17.132812-20.460938-.136719-10.121093-7.660156-18.617187-17.691406-19.980468-10.027344-1.363282-19.546875 4.816406-22.382813 14.53125h-10.398437c-10.664063-.003906-20.472656 5.84375-25.535156 15.230468-2.964844 5.5-8.703126 8.929688-14.949219 8.933594l-26.25-.125v-27.234375h1.417969c14.3125-.058593 26.902343-9.476562 30.996093-23.191406 2.574219-8.621094 10.488281-14.542969 19.484375-14.578125h11.25c2.96875 9.671875 12.570313 15.714844 22.574219 14.214844 10.007813-1.503906 17.40625-10.097656 17.40625-20.214844s-7.398437-18.714844-17.40625-20.214844c-10.003906-1.5-19.605469 4.542969-22.574219 14.214844h-11.25c-14.316406.054688-26.90625 9.476562-31 23.191406-2.574218 8.621094-10.484375 14.539063-19.484375 14.578125h-1.417969v-78.945312l39.023438 28.410156c2.679688 1.898437 6.386719 1.292969 8.320312-1.363281 1.929688-2.652344 1.371094-6.367188-1.257812-8.335938l-46.085938-33.550781v-64.761719c0-2.011718-1.011718-3.890625-2.6875-5l-34.160156-22.601562c-1.839844-1.21875-4.203125-1.328125-6.148437-.28125-1.945313 1.042968-3.160157 3.074218-3.164063 5.28125v53.757812l-73.515625-53.53125c-2.105469-1.53125-4.957031-1.53125-7.0625 0l-165.769531 120.6875c-1.761719 1.25-2.71875 3.351563-2.5 5.503906.21875 2.148438 1.578125 4.015626 3.558594 4.886719 1.980468.867188 4.273437.605469 6.007812-.691406l39.019532-28.410156v66.722656h-23.222657c-4.800781-.019531-8.949219-3.363281-9.988281-8.046875-2.265625-10.1875-11.277344-17.453125-21.714844-17.5h-28.554687c-2.96875-9.671875-12.566407-15.71875-22.574219-14.214844-10.003906 1.5-17.40625 10.09375-17.40625 20.214844 0 10.117188 7.402344 18.710938 17.40625 20.214844 10.007812 1.5 19.605469-4.542969 22.574219-14.214844h28.554687c4.800782.019531 8.945313 3.363281 9.988282 8.046875 2.265624 10.1875 11.277343 17.453125 21.714843 17.5h23.222657v30.542969h-3.527344c-6.324219.011718-12.035156-3.792969-14.457032-9.636719-4.277343-10.320313-14.359374-17.042969-25.535156-17.023437h-5.523437c-2.96875-9.671876-12.566407-15.714844-22.574219-14.214844-10.003906 1.5-17.40625 10.097656-17.40625 20.214844 0 10.117187 7.402344 18.714843 17.40625 20.214843 10.007812 1.5 19.605469-4.542969 22.574219-14.214843h5.523437c6.328125-.011719 12.039063 3.792968 14.460938 9.640624 4.28125 10.320313 14.363281 17.039063 25.535156 17.019532h3.527344v7.578125l-27.566406-.136719c-10.667969-.007812-20.476563 5.84375-25.539063 15.226562-2.96875 5.507813-8.722656 8.941407-14.976563 8.933594h-10.566406c-3.105468-9.632812-12.789062-15.546875-22.777344-13.90625-9.988281 1.640625-17.273437 10.339844-17.132812 20.460938s7.664062 18.617187 17.691406 19.980468c10.03125 1.363282 19.550782-4.816406 22.386719-14.535156h10.398437c10.664063.007813 20.472657-5.84375 25.535157-15.230468 2.960937-5.5 8.703125-8.929688 14.945312-8.933594l27.601563.136718v27.222657h-2.765625c-14.316407.058593-26.902344 9.480469-30.996094 23.195312-2.574219 8.621094-10.488281 14.539063-19.484375 14.578125h-11.25c-2.972656-9.671875-12.570312-15.71875-22.574219-14.214844-10.007812 1.5-17.410156 10.097657-17.410156 20.214844 0 10.117188 7.402344 18.710938 17.410156 20.214844 10.003907 1.5 19.601563-4.542969 22.574219-14.214844h11.25c14.3125-.058594 26.902344-9.476562 31-23.191406 2.574219-8.621094 10.484375-14.542969 19.480469-14.578125h2.765625v36.105469c0 3.3125 2.6875 6 6 6h234.421875c3.316406 0 6-2.6875 6-6v-23.886719h21.878906c4.800781.023437 8.945313 3.363281 9.988281 8.050781 2.265625 10.1875 11.277344 17.453125 21.714844 17.5h28.554688c3.082031 10.039063 13.273437 16.109375 23.570312 14.035156 10.296875-2.070312 17.347656-11.613281 16.304688-22.0625-1.039063-10.453124-9.835938-18.414062-20.335938-18.414062zm-34.4375-29.429688c4.660156 0 8.441406 3.777344 8.441406 8.441407 0 4.660156-3.78125 8.441406-8.441406 8.441406-4.664062 0-8.441406-3.78125-8.441406-8.441406.003906-4.660157 3.78125-8.4375 8.441406-8.441407zm29.507812-70.539062c4.660157 0 8.4375 3.777344 8.4375 8.441406 0 4.660156-3.777343 8.4375-8.441406 8.4375-4.660156 0-8.4375-3.777344-8.4375-8.4375.003906-4.660156 3.78125-8.4375 8.441406-8.441406zm-14.058593-52.691406c4.664062 0 8.441406 3.78125 8.441406 8.441406 0 4.664062-3.777344 8.441406-8.441406 8.441406-4.660157 0-8.441407-3.777344-8.441407-8.441406.007813-4.660156 3.78125-8.433594 8.441407-8.441406zm-432.132813 16.882812c-4.660156 0-8.4375-3.78125-8.4375-8.441406 0-4.664062 3.777344-8.441406 8.441406-8.441406 4.660157 0 8.4375 3.777344 8.4375 8.441406-.003906 4.660156-3.78125 8.4375-8.441406 8.441406zm34.4375 41.429688c-4.660156 0-8.441406-3.777344-8.441406-8.441406 0-4.660157 3.78125-8.441407 8.441406-8.441407 4.664063 0 8.441406 3.78125 8.441406 8.441407-.003906 4.660156-3.78125 8.4375-8.441406 8.441406zm-29.507812 70.539062c-4.660156 0-8.441406-3.777344-8.441406-8.441406 0-4.660156 3.78125-8.441406 8.441406-8.441406 4.664062 0 8.441406 3.78125 8.441406 8.441406-.003906 4.660156-3.78125 8.4375-8.441406 8.441406zm14.058594 52.691406c-4.664063 0-8.445313-3.777343-8.445313-8.441406 0-4.664062 3.78125-8.441406 8.445313-8.441406 4.660156 0 8.441406 3.777344 8.441406 8.441406-.007813 4.660156-3.78125 8.4375-8.441406 8.441406zm296.300781-311.320312 22.15625 14.664062v52.800782l-22.15625-16.132813zm-200.269531 301.214844v-218.90625l111.214843-80.96875 111.210938 80.96875v218.90625zm336.101562 10.105468c-4.664062 0-8.445312-3.777343-8.445312-8.441406 0-4.660156 3.777343-8.441406 8.441406-8.441406 4.664062 0 8.441406 3.777344 8.441406 8.441406-.003906 4.660156-3.78125 8.4375-8.4375 8.441406zm0 0"/></svg>